<svg xmlns="http://www.w3.org/2000/svg" width="70.479" height="95.844" viewBox="0 0 70.479 95.844">
  <g id="suit-and-tie-outfit" transform="translate(-12.683)">
    <g id="Group_96" data-name="Group 96">
      <path id="Path_25" data-name="Path 25" d="M47.918,39.7,52.742,12.66l-3.87-5.34,1.9-3.809h-5.7l1.9,3.809-3.876,5.34Z" fill="#fff"/>
      <path id="Path_26" data-name="Path 26" d="M75.541,86.669h7.621l-1.9-32.388L77.443,11.43,59.35,3.812,57.445,0l-1.9,7.618L47.919,51.428,40.3,7.618,38.393,0l-1.9,3.809L18.4,11.426,14.585,54.281l-1.9,32.388H20.3l6.952-42.032,2.568,9.639L22.2,86.321l21.905,9.523L47.915,77.1l3.807,18.743,21.909-9.523L66.006,54.276l2.57-9.639ZM68,27.259l-7.741,1.073,5.119-6.312L68,24.046Z" fill="#fff"/>
    </g>
  </g>
</svg>
