<svg xmlns="http://www.w3.org/2000/svg" width="49.573" height="95.844" viewBox="0 0 49.573 95.844">
  <g id="Layer_32" data-name="Layer 32" transform="translate(-17 -3.004)">
    <path id="Path_24" data-name="Path 24" d="M22.343,4.192l3.4-.851,3.39,12.429a29.876,29.876,0,0,0-3.16,1.747ZM66.087,96.428A23.218,23.218,0,0,1,55,98.836a195.63,195.63,0,0,0-4.991-43.322l-3.223.744a192.281,192.281,0,0,1,4.9,42.216c-.134-.025-.271-.036-.4-.064l-2.628-.524a34.994,34.994,0,0,0-13.739,0l-2.631.524c-.134.028-.269.04-.4.064a192.279,192.279,0,0,1,4.9-42.216l-3.223-.744a195.63,195.63,0,0,0-4.991,43.322A23.221,23.221,0,0,1,17.5,96.428l-.5-.243A114.414,114.414,0,0,1,26.917,50.43l2.644-5.919a7.656,7.656,0,0,0,.661-3.14,7.751,7.751,0,0,0-1.544-4.628,24.087,24.087,0,0,1-4.462-10.436l-.484-2.9a26.728,26.728,0,0,1,14.331-6.983l3.162-.486a16.032,16.032,0,0,0,12.944-11.4A2.157,2.157,0,0,1,56.717,3.06l4.907,1.228v4.99A57.147,57.147,0,0,1,54.451,36.96a8.672,8.672,0,0,0-.345,7.728l2.55,5.735a114.414,114.414,0,0,1,9.917,45.755Z" transform="translate(0 0)" fill="#fff"/>
  </g>
</svg>
