<svg id="Icon" xmlns="http://www.w3.org/2000/svg" width="24" height="24" viewBox="0 0 24 24">
  <rect id="Icon-2" data-name="Icon" width="24" height="24" fill="none"/>
  <path id="Vector" d="M19.28.22a.75.75,0,0,1,.22.53V13.5A1.5,1.5,0,0,1,18,15H1.5A1.5,1.5,0,0,1,0,13.5V.75A.75.75,0,0,1,.75,0h18A.75.75,0,0,1,19.28.22ZM16.822,1.5H2.678L9.75,7.983ZM1.5,2.455V12.545L7,7.5ZM2.678,13.5H16.816L11.378,8.517,10.253,9.553a.75.75,0,0,1-1.014,0L8.114,8.517ZM18,12.546V2.454L12.5,7.5Z" transform="translate(2.25 4.5)" fill="#98a2b3"/>
</svg>
