<svg id="Icon" xmlns="http://www.w3.org/2000/svg" width="24" height="24" viewBox="0 0 24 24">
  <rect id="Icon-2" data-name="Icon" width="24" height="24" fill="none"/>
  <path id="Vector" d="M10.716,10.39a2.625,2.625,0,0,1-.966,4.5V16.5a.75.75,0,1,1-1.5,0V14.89a2.625,2.625,0,1,1,2.466-4.5ZM9.8,13.17a1.125,1.125,0,1,0-.8.33,1.125,1.125,0,0,0,.8-.33Zm7.765-5.981A1.5,1.5,0,0,1,18,8.25v10.5a1.5,1.5,0,0,1-1.5,1.5H1.5A1.5,1.5,0,0,1,0,18.75V8.25a1.5,1.5,0,0,1,1.5-1.5h3V4.5a4.5,4.5,0,0,1,9,0V6.75h3A1.5,1.5,0,0,1,17.561,7.189ZM6,6.75h6V4.5a3,3,0,0,0-6,0Zm10.5,1.5H1.5v10.5h15Z" transform="translate(3 0.75)" fill="#98a2b3"/>
</svg>
