<svg id="Icon" xmlns="http://www.w3.org/2000/svg" width="24" height="24" viewBox="0 0 24 24">
  <rect id="Icon-2" data-name="Icon" width="24" height="24" fill="none"/>
  <path id="Vector" d="M16.641,2.859A9.742,9.742,0,1,1,9.75,0a9.76,9.76,0,0,1,6.891,2.859ZM9.75,18a8.234,8.234,0,0,0,5.055-1.734,6,6,0,0,0-10.11,0A8.234,8.234,0,0,0,9.75,18ZM7.629,11.121A3,3,0,1,0,6.75,9a3,3,0,0,0,.879,2.121ZM17.9,11a8.25,8.25,0,1,0-14.319,4.23,7.468,7.468,0,0,1,3.381-2.7,4.5,4.5,0,1,1,5.569,0,7.468,7.468,0,0,1,3.381,2.7A8.25,8.25,0,0,0,17.9,11Z" transform="translate(2.25 2.25)" fill="#98a2b3"/>
</svg>
